<svg id="flat" height="512" viewBox="0 0 512 512" width="512" xmlns="http://www.w3.org/2000/svg"><path d="m192 280h128v120h-128z" fill="#ffc431"/><path d="m320 376h32v-32.0001a95.9999 95.9999 0 0 0 -95.9999-95.9999h-.0002a95.9999 95.9999 0 0 0 -95.9999 95.9999v32.0001h48v24h-112v-24h40v-32.00012a119.99988 119.99988 0 0 1 119.99988-119.99988h.00024a119.99988 119.99988 0 0 1 119.99988 119.99988v32.00012h40v24h-96z" fill="#8098ab"/><path d="m96 176-32-32h-40v8l48 24z" fill="#7dafff"/><path d="m96 176 32-32h40v8l-48 24z" fill="#7dafff"/><path d="m312 144h-112l-16 24v80h144v-80z" fill="#548aff"/><path d="m128 192h56v32h-56z" fill="#4976f2"/><path d="m64 176h64v48h-64z" fill="#548aff"/><path d="m232 248h48v32h-48z" fill="#62798c"/><path d="m240 280v40l16-8 16 8v-40z" fill="#ffa100"/><path d="m296 144v-16a16 16 0 0 0 -16-16h-48a16 16 0 0 0 -16 16v16z" fill="#4976f2"/><path d="m256 360h16v16h-16z" fill="#ffb401"/><path d="m280 360h16v16h-16z" fill="#ffb401"/><path d="m72 176 16-32h16l16 32z" fill="#4976f2"/><path d="m328 192h56v32h-56z" fill="#4976f2"/><path d="m384 176h64v48h-64z" fill="#548aff"/><path d="m416 176-32-32h-40v8l48 24z" fill="#7dafff"/><path d="m416 176 32-32h40v8l-48 24z" fill="#7dafff"/><path d="m392 176 16-32h16l16 32z" fill="#4976f2"/></svg>