<svg xmlns="http://www.w3.org/2000/svg" viewBox="0 0 369.08 361.45"><defs><style>.cls-1{fill:#193f43;}</style></defs><title>symbol_dark</title><g id="Ebene_2" data-name="Ebene 2"><g id="Ebene_1-2" data-name="Ebene 1"><circle class="cls-1" cx="34.63" cy="294.21" r="34.63" transform="translate(-245.11 196.74) rotate(-64.08)"/><circle class="cls-1" cx="334.45" cy="294.34" r="34.63" transform="translate(-76.49 466.46) rotate(-64.08)"/><circle class="cls-1" cx="184.66" cy="34.63" r="34.63" transform="translate(72.79 185.57) rotate(-64.08)"/><path class="cls-1" d="M289,124.36A59.76,59.76,0,0,1,300,128,115.45,115.45,0,0,0,229.91,25a46.35,46.35,0,0,1-6.72,35.19,80.74,80.74,0,0,1,42.17,68.7A29.23,29.23,0,0,1,289,124.36Z"/><path class="cls-1" d="M264.57,148.66a18.14,18.14,0,0,1,21.85-13.46c4.81,1.14,10.72,3.26,12.94,7.27s1.7,9.64.53,14.59a18.15,18.15,0,0,1-35.32-8.4Z"/><path class="cls-1" d="M92.55,168.46A18.15,18.15,0,0,1,70,156.26c-1.41-4.73-2.53-10.91-.17-14.83s7.5-6.3,12.37-7.75a18.15,18.15,0,1,1,10.39,34.78Z"/><path class="cls-1" d="M163.54,341.47a30.19,30.19,0,0,1-9.46-23.07,80.78,80.78,0,0,1-79-4.18,45,45,0,0,1-27.3,23.12,115.45,115.45,0,0,0,124.18,10.84A60.41,60.41,0,0,1,163.54,341.47Z"/><path class="cls-1" d="M196.79,306.26a18.14,18.14,0,0,1,.73,25.66c-3.39,3.59-8.18,7.65-12.76,7.57s-9.2-3.35-12.9-6.84a18.15,18.15,0,1,1,24.93-26.39Z"/><path class="cls-1" d="M138.39,34.6a47,47,0,0,1,1-9.63A115.47,115.47,0,0,0,69.27,126.66a57.71,57.71,0,0,1,9.66-3.77,29.36,29.36,0,0,1,25,3.89,80.77,80.77,0,0,1,42.15-66.61A46.12,46.12,0,0,1,138.39,34.6Z"/><path class="cls-1" d="M12.11,255.14a44.82,44.82,0,0,1,25.44-5.93A80.79,80.79,0,0,1,75,177.75a29.33,29.33,0,0,1-15.83-18.27,59.49,59.49,0,0,1-2.33-11.22,115.47,115.47,0,0,0-53,113A44.77,44.77,0,0,1,12.11,255.14Z"/><path class="cls-1" d="M311.77,333.56a45.09,45.09,0,0,1-17.93-19.13,80.81,80.81,0,0,1-79.27,3.77,30.17,30.17,0,0,1-8.23,22.05,61.54,61.54,0,0,1-9,8,115.46,115.46,0,0,0,123.79-10.64A45.19,45.19,0,0,1,311.77,333.56Z"/><path class="cls-1" d="M312.34,148.33a56.7,56.7,0,0,1-1.61,11.3,29.24,29.24,0,0,1-15,19.21,80.8,80.8,0,0,1,35.85,70.28,45.29,45.29,0,0,1,33.7,12A115.47,115.47,0,0,0,312.34,148.33Z"/></g></g></svg>