<svg xmlns="http://www.w3.org/2000/svg" width="18.396" height="18.396" viewBox="0 0 18.396 18.396">
  <g id="Settings" transform="translate(-0.003 0)">
    <g id="Gruppe_1" data-name="Gruppe 1" transform="translate(0.003 0)">
      <path id="Pfad_18" data-name="Pfad 18" d="M18.341,8.177a.6.6,0,0,0-.591-.453,2.031,2.031,0,0,1-1.39-3.535.511.511,0,0,0,.056-.694,9.1,9.1,0,0,0-1.457-1.472.512.512,0,0,0-.7.056,2.12,2.12,0,0,1-2.294.515,2.043,2.043,0,0,1-1.242-2,.51.51,0,0,0-.451-.537A9.183,9.183,0,0,0,8.2.056a.512.512,0,0,0-.455.526A2.046,2.046,0,0,1,6.487,2.545,2.126,2.126,0,0,1,4.21,2.026a.513.513,0,0,0-.694-.058A9.136,9.136,0,0,0,2.028,3.439a.512.512,0,0,0,.055.7A2.038,2.038,0,0,1,2.6,6.433a2.126,2.126,0,0,1-2,1.243.5.5,0,0,0-.531.452,9.214,9.214,0,0,0,0,2.092.608.608,0,0,0,.6.452,2.017,2.017,0,0,1,1.893,1.26,2.045,2.045,0,0,1-.514,2.274.511.511,0,0,0-.056.693,9.135,9.135,0,0,0,1.455,1.472.511.511,0,0,0,.7-.055A2.117,2.117,0,0,1,6.434,15.8a2.04,2.04,0,0,1,1.244,2,.511.511,0,0,0,.451.537,9.154,9.154,0,0,0,2.069.006.512.512,0,0,0,.455-.527,2.044,2.044,0,0,1,1.258-1.961,2.123,2.123,0,0,1,2.278.518.514.514,0,0,0,.694.058,9.157,9.157,0,0,0,1.488-1.471.511.511,0,0,0-.055-.7,2.038,2.038,0,0,1-.515-2.295,2.059,2.059,0,0,1,1.882-1.247l.114,0a.512.512,0,0,0,.538-.451A9.206,9.206,0,0,0,18.341,8.177ZM9.215,12.286a3.068,3.068,0,1,1,3.068-3.068A3.071,3.071,0,0,1,9.215,12.286Z" transform="translate(-0.003 0)" fill="#fff" fill-rule="evenodd"/>
    </g>
  </g>
</svg>
