<svg id="Layer_1" enable-background="new 0 0 512 512" height="512" viewBox="0 0 512 512" width="512" xmlns="http://www.w3.org/2000/svg"><g><path d="m504.5 114.762h-84.861v-12.213c0-15.005-12.207-27.212-27.212-27.212s-27.212 12.207-27.212 27.212v12.213h-84.861c-4.143 0-7.5 3.357-7.5 7.5s3.357 7.5 7.5 7.5h66.989v27.667c0 4.143 3.357 7.5 7.5 7.5h14.397c-3.535 19.089-20.308 33.592-40.405 33.592-3.197 0-6.081-1.955-7.346-4.981-11.072-26.492-36.778-43.61-65.489-43.61s-54.417 17.118-65.489 43.609c-1.265 3.027-4.148 4.982-7.346 4.982-20.097 0-36.87-14.502-40.405-33.592h14.397c4.143 0 7.5-3.357 7.5-7.5v-27.667h66.989c4.143 0 7.5-3.357 7.5-7.5s-3.357-7.5-7.5-7.5h-84.861v-12.213c0-15.005-12.207-27.212-27.212-27.212s-27.212 12.207-27.212 27.212v12.213h-84.861c-4.143 0-7.5 3.357-7.5 7.5s3.357 7.5 7.5 7.5h66.989v27.667c0 4.143 3.357 7.5 7.5 7.5h15.408c3.598 41.5 36.767 74.67 78.268 78.269v33.95l-89.377 123.912c-7.229 10.082-4.908 24.167 5.175 31.397 3.962 2.84 8.54 4.205 13.079 4.205 7.012-.001 13.928-3.261 18.316-9.38l14.276-19.91c2.414-3.366 1.642-8.052-1.725-10.465-3.364-2.413-8.053-1.643-10.465 1.725l-14.276 19.909c-2.41 3.36-7.107 4.135-10.466 1.726-3.361-2.41-4.135-7.105-1.737-10.449l78.418-108.719c1.088 6.172 2.883 12.103 5.298 17.707l-38.403 53.559c-2.414 3.366-1.642 8.052 1.725 10.465 1.323.949 2.851 1.406 4.364 1.406 2.335 0 4.637-1.088 6.101-3.131l34.307-47.846c14.551 20.662 38.588 34.187 65.724 34.187 27.135 0 51.172-13.524 65.723-34.185l67.416 94.022c4.39 6.119 11.303 9.379 18.316 9.379 4.538-.001 9.119-1.366 13.081-4.206 10.081-7.229 12.402-21.314 5.161-31.414l-89.362-123.891v-33.954c41.501-3.598 74.67-36.768 78.268-78.269h15.408c4.143 0 7.5-3.357 7.5-7.5v-27.667h66.99c4.143 0 7.5-3.357 7.5-7.5s-3.357-7.499-7.5-7.499zm-124.285-12.213c0-6.733 5.479-12.212 12.212-12.212s12.212 5.479 12.212 12.212v12.213h-24.424zm-272.854 0c0-6.733 5.479-12.212 12.212-12.212s12.212 5.479 12.212 12.212v12.213h-24.424zm-17.872 47.38v-20.167h60.168v20.167zm324.031 259.871c2.409 3.361 1.636 8.057-1.724 10.466-3.361 2.41-8.058 1.636-10.468-1.724l-71.512-99.733c2.415-5.604 4.21-11.535 5.299-17.707zm-84.685-181.279c-4.143 0-7.5 3.357-7.5 7.5v51.091c0 36.025-29.31 65.335-65.335 65.335s-65.335-29.31-65.335-65.335v-51.091c0-4.143-3.357-7.5-7.5-7.5-36.666 0-66.938-27.905-70.699-63.592h15.106c3.678 27.396 27.206 48.592 55.593 48.592 9.265 0 17.581-5.573 21.186-14.198 8.732-20.894 29.006-34.394 51.649-34.394s42.917 13.5 51.649 34.395c3.604 8.624 11.921 14.197 21.186 14.197 28.387 0 51.915-21.196 55.593-48.592h15.106c-3.761 35.687-34.033 63.592-70.699 63.592zm93.676-78.592h-60.168v-20.167h60.168z"/><path d="m241.485 204.233h29.029c4.143 0 7.5-3.357 7.5-7.5s-3.357-7.5-7.5-7.5h-29.029c-4.143 0-7.5 3.357-7.5 7.5s3.358 7.5 7.5 7.5z"/><path d="m256 238.39c-26.563 0-48.175 21.611-48.175 48.175s21.611 48.176 48.175 48.176c11.295 0 22.277-3.99 30.924-11.234 3.175-2.66 3.593-7.391.933-10.565s-7.391-3.594-10.565-.933c-5.951 4.986-13.513 7.732-21.291 7.732-18.293 0-33.175-14.883-33.175-33.176s14.881-33.175 33.174-33.175 33.175 14.882 33.175 33.175c0 4.143 3.357 7.5 7.5 7.5s7.5-3.357 7.5-7.5c0-26.564-21.612-48.175-48.175-48.175z"/></g></svg>